<?xml version="1.0" encoding="UTF-8" standalone="no"?>
<!DOCTYPE svg PUBLIC "-//W3C//DTD SVG 1.0//EN" "http://www.w3.org/TR/2001/REC-SVG-20010904/DTD/svg10.dtd">
<!-- Généré par Microsoft Visio 11.0, SVG Export, v1.0 TetA_network1.svg Page 1 -->
<svg xmlns="http://www.w3.org/2000/svg" xmlns:v="http://schemas.microsoft.com/visio/2003/SVGExtensions/" width="10.6965in"
		height="4.96875in" viewBox="0 0 770.148 357.75" xml:space="preserve" color-interpolation-filters="sRGB" class="st13">
	<v:documentProperties v:langID="1033" v:metric="true" v:viewMarkup="false"/>

	<style type="text/css">
	<![CDATA[
		.st1 {fill:#ffffff;stroke:none;stroke-width:0.75}
		.st2 {fill:none}
		.st3 {stroke:#999999;stroke-linecap:round;stroke-linejoin:round;stroke-width:1.25784}
		.st4 {fill:none;stroke:#000000;stroke-linecap:round;stroke-linejoin:round;stroke-width:1.25784}
		.st5 {fill:#999999;stroke:none;stroke-width:1.25784}
		.st6 {fill:none;stroke:none;stroke-linecap:butt;stroke-width:0.75}
		.st7 {fill:#333333;font-family:Arial;font-size:0.838554em}
		.st8 {fill:#00cc33;stroke:none;stroke-width:1.25784}
		.st9 {fill:#ff0033;stroke:none;stroke-width:1.25784}
		.st10 {fill:#0000ff;stroke:none;stroke-width:1.25784}
		.st11 {fill:none;stroke:none;stroke-linecap:round;stroke-linejoin:round;stroke-width:0.72}
		.st12 {fill:#000000;font-family:Arial;font-size:1.33333em}
		.st13 {fill:none;fill-rule:evenodd;font-size:12;overflow:visible;stroke-linecap:square;stroke-miterlimit:3}
	]]>
	</style>

	<g v:mID="0" v:index="1" v:groupContext="foregroundPage">
		<title>Page 1</title>
		<v:pageProperties v:drawingScale="1" v:pageScale="1" v:drawingUnits="19" v:shadowOffsetX="9" v:shadowOffsetY="-9"/>
		<g id="group114-1" transform="translate(0.75,-0.75)" v:mID="114" v:groupContext="group">
			<title>Feuille.114</title>
			<g id="group1-2" v:mID="1" v:groupContext="group">
				<title>Feuille.1</title>
				<g id="shape2-3" v:mID="2" v:groupContext="shape">
					<title>Feuille.2</title>
					<path d="M0 1.5 L657.75 1.5 L657.75 357.75 L0 357.75 L0 1.5 Z" class="st1"/>
				</g>
				<g id="shape3-5" v:mID="3" v:groupContext="shape" transform="translate(408.824,-61.3429)">
					<title>Feuille.3</title>
					<path d="M4.44 357.75 L0 228.8 L4.44 357.75 Z" class="st2"/>
					<path d="M4.44 357.75 L0 228.8" class="st3"/>
				</g>
				<g id="shape4-8" v:mID="4" v:groupContext="shape" transform="translate(274.451,-53.4639)">
					<title>Feuille.4</title>
					<path d="M129.83 357.75 L0 336.14 L129.83 357.75 Z" class="st2"/>
					<path d="M129.83 357.75 L0 336.14" class="st3"/>
				</g>
				<g id="shape5-11" v:mID="5" v:groupContext="shape" transform="translate(324.521,-56.9372)">
					<title>Feuille.5</title>
					<path d="M81.08 357.75 L0 306.76 L81.08 357.75 Z" class="st2"/>
					<path d="M81.08 357.75 L0 306.76" class="st3"/>
				</g>
				<g id="shape6-14" v:mID="6" v:groupContext="shape" transform="translate(360.296,-60.9312)">
					<title>Feuille.6</title>
					<path d="M50.52 357.75 L0 193.58 L50.52 357.75 Z" class="st2"/>
					<path d="M50.52 357.75 L0 193.58" class="st3"/>
				</g>
				<g id="shape7-17" v:mID="7" v:groupContext="shape" transform="translate(273.359,-58.63)">
					<title>Feuille.7</title>
					<path d="M133.6 357.75 L0 222.34 L133.6 357.75 Z" class="st2"/>
					<path d="M133.6 357.75 L0 222.34" class="st3"/>
				</g>
				<g id="shape8-20" v:mID="8" v:groupContext="shape" transform="translate(235.334,-55.6721)">
					<title>Feuille.8</title>
					<path d="M0 284.1 L169.6 357.75 L0 284.1 Z" class="st2"/>
					<path d="M0 284.1 L169.6 357.75" class="st3"/>
				</g>
				<g id="shape9-23" v:mID="9" v:groupContext="shape" transform="translate(286.104,-122.164)">
					<title>Feuille.9</title>
					<path d="M28.38 357.75 L0 230.07 L28.38 357.75 Z" class="st2"/>
					<path d="M28.38 357.75 L0 230.07" class="st3"/>
				</g>
				<g id="shape10-26" v:mID="10" v:groupContext="shape" transform="translate(325.652,-115.379)">
					<title>Feuille.10</title>
					<path d="M119.62 325.95 L0 357.75 L119.62 325.95 Z" class="st2"/>
					<path d="M119.62 325.95 L0 357.75" class="st3"/>
				</g>
				<g id="shape11-29" v:mID="11" v:groupContext="shape" transform="translate(323.397,-119.429)">
					<title>Feuille.11</title>
					<path d="M78.24 283.93 L0 357.75 L78.24 283.93 Z" class="st2"/>
					<path d="M78.24 283.93 L0 357.75" class="st3"/>
				</g>
				<g id="shape12-32" v:mID="12" v:groupContext="shape" transform="translate(235.887,-115.016)">
					<title>Feuille.12</title>
					<path d="M0 341.75 L71.44 357.75 L0 341.75 Z" class="st2"/>
					<path d="M0 341.75 L71.44 357.75" class="st3"/>
				</g>
				<g id="shape13-35" v:mID="13" v:groupContext="shape" transform="translate(204.091,-116.795)">
					<title>Feuille.13</title>
					<path d="M0 311.48 L103.83 357.75 L0 311.48 Z" class="st2"/>
					<path d="M0 311.48 L103.83 357.75" class="st3"/>
				</g>
				<g id="shape14-38" v:mID="14" v:groupContext="shape" transform="translate(325.691,-79.4761)">
					<title>Feuille.14</title>
					<path d="M125.85 357.75 L0 326.54 L125.85 357.75 Z" class="st2"/>
					<path d="M125.85 357.75 L0 326.54" class="st3"/>
				</g>
				<g id="shape15-41" v:mID="15" v:groupContext="shape" transform="translate(325.952,-103.061)">
					<title>Feuille.15</title>
					<path d="M155.37 357.75 L0 348.42 L155.37 357.75 Z" class="st2"/>
					<path d="M155.37 357.75 L0 348.42" class="st3"/>
				</g>
				<g id="shape16-44" v:mID="16" v:groupContext="shape" transform="translate(321.169,-37.1231)">
					<title>Feuille.16</title>
					<path d="M38.13 357.75 L0 290.14 L38.13 357.75 Z" class="st2"/>
					<path d="M38.13 357.75 L0 290.14" class="st3"/>
				</g>
				<g id="shape17-47" v:mID="17" v:groupContext="shape" transform="translate(237.248,-120.43)">
					<title>Feuille.17</title>
					<path d="M0 262.22 L73.53 357.75 L0 262.22 Z" class="st2"/>
					<path d="M0 262.22 L73.53 357.75" class="st3"/>
				</g>
				<g id="shape18-50" v:mID="18" v:groupContext="shape" transform="translate(231.66,-50.973)">
					<title>Feuille.18</title>
					<path d="M0 357.75 L26 337.83 L0 357.75 Z" class="st2"/>
					<path d="M0 357.75 L26 337.83" class="st3"/>
				</g>
				<g id="shape19-53" v:mID="19" v:groupContext="shape" transform="translate(229.613,-52.9424)">
					<title>Feuille.19</title>
					<path d="M0 357.75 L122.47 184.29 L0 357.75 Z" class="st2"/>
					<path d="M0 357.75 L122.47 184.29" class="st3"/>
				</g>
				<g id="shape20-56" v:mID="20" v:groupContext="shape" transform="translate(204.188,-170.524)">
					<title>Feuille.20</title>
					<path d="M0 357.75 L144.62 297.77 L0 357.75 Z" class="st2"/>
					<path d="M0 357.75 L144.62 297.77" class="st3"/>
				</g>
				<g id="shape21-59" v:mID="21" v:groupContext="shape" transform="translate(201.238,-84.0955)">
					<title>Feuille.21</title>
					<path d="M0 282.4 L58.14 357.75 L0 282.4 Z" class="st2"/>
					<path d="M0 282.4 L58.14 357.75" class="st3"/>
				</g>
				<g id="shape22-62" v:mID="22" v:groupContext="shape" transform="translate(204.798,-168.346)">
					<title>Feuille.22</title>
					<path d="M194.38 327.81 L0 357.75 L194.38 327.81 Z" class="st2"/>
					<path d="M194.38 327.81 L0 357.75" class="st3"/>
				</g>
				<g id="shape23-65" v:mID="23" v:groupContext="shape" transform="translate(203.996,-170.957)">
					<title>Feuille.23</title>
					<path d="M54.22 332 L0 357.75 L54.22 332 Z" class="st2"/>
					<path d="M54.22 332 L0 357.75" class="st3"/>
				</g>
				<g id="shape24-68" v:mID="24" v:groupContext="shape" transform="translate(414.87,-156.566)">
					<title>Feuille.24</title>
					<path d="M33.14 357.75 L0 321.55 L33.14 357.75 Z" class="st2"/>
					<path d="M33.14 357.75 L0 321.55" class="st3"/>
				</g>
				<g id="shape25-71" v:mID="25" v:groupContext="shape" transform="translate(236.09,-133.758)">
					<title>Feuille.25</title>
					<path d="M208.89 342.58 L0 357.75 L208.89 342.58 Z" class="st2"/>
					<path d="M208.89 342.58 L0 357.75" class="st3"/>
				</g>
				<g id="shape26-74" v:mID="26" v:groupContext="shape" transform="translate(275.836,-152.088)">
					<title>Feuille.26</title>
					<path d="M169.45 357.75 L0 311.57 L169.45 357.75 Z" class="st2"/>
					<path d="M169.45 357.75 L0 311.57" class="st3"/>
				</g>
				<g id="shape27-77" v:mID="27" v:groupContext="shape" transform="translate(273.947,-80.0214)">
					<title>Feuille.27</title>
					<path d="M0 357.75 L171.64 291.56 L0 357.75 Z" class="st2"/>
					<path d="M0 357.75 L171.64 291.56" class="st3"/>
				</g>
				<g id="shape28-80" v:mID="28" v:groupContext="shape" transform="translate(364.631,-155.809)">
					<title>Feuille.28</title>
					<path d="M0 285.65 L82.65 357.75 L0 285.65 Z" class="st2"/>
					<path d="M0 285.65 L82.65 357.75" class="st3"/>
				</g>
				<g id="shape29-83" v:mID="29" v:groupContext="shape" transform="translate(227.183,-142.495)">
					<title>Feuille.29</title>
					<path d="M0 357.75 L3.81 286.23 L0 357.75 Z" class="st2"/>
					<path d="M0 357.75 L3.81 286.23" class="st3"/>
				</g>
				<g id="shape30-86" v:mID="30" v:groupContext="shape" transform="translate(230.591,-141.66)">
					<title>Feuille.30</title>
					<path d="M0 357.75 L49.56 248.94 L0 357.75 Z" class="st2"/>
					<path d="M0 357.75 L49.56 248.94" class="st3"/>
				</g>
				<g id="shape31-89" v:mID="31" v:groupContext="shape" transform="translate(235.538,-136.322)">
					<title>Feuille.31</title>
					<path d="M0 357.75 L164.1 297.59 L0 357.75 Z" class="st2"/>
					<path d="M0 357.75 L164.1 297.59" class="st3"/>
				</g>
				<g id="shape32-92" v:mID="32" v:groupContext="shape" transform="translate(234.196,-34.6091)">
					<title>Feuille.32</title>
					<path d="M0 264.99 L122.22 357.75 L0 264.99 Z" class="st2"/>
					<path d="M0 264.99 L122.22 357.75" class="st3"/>
				</g>
				<g id="shape33-95" v:mID="33" v:groupContext="shape" transform="translate(231.486,-141.193)">
					<title>Feuille.33</title>
					<path d="M0 357.75 L30.44 306.31 L0 357.75 Z" class="st2"/>
					<path d="M0 357.75 L30.44 306.31" class="st3"/>
				</g>
				<g id="shape34-98" v:mID="34" v:groupContext="shape" transform="translate(231.993,-84.4229)">
					<title>Feuille.34</title>
					<path d="M27.84 357.75 L0 316.89 L27.84 357.75 Z" class="st2"/>
					<path d="M27.84 357.75 L0 316.89" class="st3"/>
				</g>
				<g id="shape35-101" v:mID="35" v:groupContext="shape" transform="translate(234.148,-138.841)">
					<title>Feuille.35</title>
					<path d="M115.91 268.24 L0 357.75 L115.91 268.24 Z" class="st2"/>
					<path d="M115.91 268.24 L0 357.75" class="st3"/>
				</g>
				<g id="shape36-104" v:mID="36" v:groupContext="shape" transform="translate(412.197,-85.8845)">
					<title>Feuille.36</title>
					<path d="M44.8 357.75 L0 252.59 L44.8 357.75 Z" class="st2"/>
					<path d="M44.8 357.75 L0 252.59" class="st3"/>
				</g>
				<g id="shape37-107" v:mID="37" v:groupContext="shape" transform="translate(362.705,-85.0879)">
					<title>Feuille.37</title>
					<path d="M92.81 357.75 L0 216.61 L92.81 357.75 Z" class="st2"/>
					<path d="M92.81 357.75 L0 216.61" class="st3"/>
				</g>
				<g id="shape38-110" v:mID="38" v:groupContext="shape" transform="translate(274.69,-82.2737)">
					<title>Feuille.38</title>
					<path d="M178.05 357.75 L0 244.34 L178.05 357.75 Z" class="st2"/>
					<path d="M178.05 357.75 L0 244.34" class="st3"/>
				</g>
				<g id="shape39-113" v:mID="39" v:groupContext="shape" transform="translate(274.579,-76.6548)">
					<title>Feuille.39</title>
					<path d="M176.68 357.23 L0 357.75 L176.68 357.23 Z" class="st2"/>
					<path d="M176.68 357.23 L0 357.75" class="st3"/>
				</g>
				<g id="shape40-116" v:mID="40" v:groupContext="shape" transform="translate(273.64,-33.0093)">
					<title>Feuille.40</title>
					<path d="M81.8 357.75 L0 318.24 L81.8 357.75 Z" class="st2"/>
					<path d="M81.8 357.75 L0 318.24" class="st3"/>
				</g>
				<g id="shape41-119" v:mID="41" v:groupContext="shape" transform="translate(357.816,-38.335)">
					<title>Feuille.41</title>
					<path d="M5.82 357.75 L0 171.4 L5.82 357.75 Z" class="st2"/>
					<path d="M5.82 357.75 L0 171.4" class="st3"/>
				</g>
				<g id="shape42-122" v:mID="42" v:groupContext="shape" transform="translate(366.313,-38.034)">
					<title>Feuille.42</title>
					<path d="M39.81 205.19 L0 357.75 L39.81 205.19 Z" class="st2"/>
					<path d="M39.81 205.19 L0 357.75" class="st3"/>
				</g>
				<g id="shape43-125" v:mID="43" v:groupContext="shape" transform="translate(271.378,-37.1171)">
					<title>Feuille.43</title>
					<path d="M0 202.33 L87.91 357.75 L0 202.33 Z" class="st2"/>
					<path d="M0 202.33 L87.91 357.75" class="st3"/>
				</g>
				<g id="shape44-128" v:mID="44" v:groupContext="shape" transform="translate(414.592,-109.698)">
					<title>Feuille.44</title>
					<path d="M70.06 357.75 L0 274.92 L70.06 357.75 Z" class="st2"/>
					<path d="M70.06 357.75 L0 274.92" class="st3"/>
				</g>
				<g id="shape45-131" v:mID="45" v:groupContext="shape" transform="translate(364.233,-109.126)">
					<title>Feuille.45</title>
					<path d="M119.8 357.75 L0 239.39 L119.8 357.75 Z" class="st2"/>
					<path d="M119.8 357.75 L0 239.39" class="st3"/>
				</g>
				<g id="shape46-134" v:mID="46" v:groupContext="shape" transform="translate(275.373,-106.285)">
					<title>Feuille.46</title>
					<path d="M206.73 357.75 L0 267.07 L206.73 357.75 Z" class="st2"/>
					<path d="M206.73 357.75 L0 267.07" class="st3"/>
				</g>
				<g id="shape47-137" v:mID="47" v:groupContext="shape" transform="translate(274.518,-77.7016)">
					<title>Feuille.47</title>
					<path d="M206.85 334.03 L0 357.75 L206.85 334.03 Z" class="st2"/>
					<path d="M206.85 334.03 L0 357.75" class="st3"/>
				</g>
				<g id="shape48-140" v:mID="48" v:groupContext="shape" transform="translate(272.303,-82.7728)">
					<title>Feuille.48</title>
					<path d="M0 357.75 L129.04 246.94 L0 357.75 Z" class="st2"/>
					<path d="M0 357.75 L129.04 246.94" class="st3"/>
				</g>
				<g id="shape49-143" v:mID="49" v:groupContext="shape" transform="translate(266.118,-86.0104)">
					<title>Feuille.49</title>
					<path d="M16.97 194.09 L0 357.75 L16.97 194.09 Z" class="st2"/>
					<path d="M16.97 194.09 L0 357.75" class="st3"/>
				</g>
				<g id="shape50-146" v:mID="50" v:groupContext="shape" transform="translate(233.601,-85.8223)">
					<title>Feuille.50</title>
					<path d="M0 229.33 L29.44 357.75 L0 229.33 Z" class="st2"/>
					<path d="M0 229.33 L29.44 357.75" class="st3"/>
				</g>
				<g id="shape51-149" v:mID="51" v:groupContext="shape" transform="translate(273.437,-81.127)">
					<title>Feuille.51</title>
					<path d="M171.83 264.49 L0 357.75 L171.83 264.49 Z" class="st2"/>
					<path d="M171.83 264.49 L0 357.75" class="st3"/>
				</g>
				<g id="shape52-152" v:mID="52" v:groupContext="shape" transform="translate(365.7,-183.592)">
					<title>Feuille.52</title>
					<path d="M79.68 357.75 L0 311.93 L79.68 357.75 Z" class="st2"/>
					<path d="M79.68 357.75 L0 311.93" class="st3"/>
				</g>
				<g id="shape53-155" v:mID="53" v:groupContext="shape" transform="translate(292.572,-203.786)">
					<title>Feuille.53</title>
					<path d="M107.41 357.75 L0 306.54 L107.41 357.75 Z" class="st2"/>
					<path d="M107.41 357.75 L0 306.54" class="st3"/>
				</g>
				<g id="shape54-158" v:mID="54" v:groupContext="shape" transform="translate(240.844,-200.979)">
					<title>Feuille.54</title>
					<path d="M158.31 357.75 L0 336.54 L158.31 357.75 Z" class="st2"/>
					<path d="M158.31 357.75 L0 336.54" class="st3"/>
				</g>
				<g id="shape55-161" v:mID="55" v:groupContext="shape" transform="translate(276.167,-199.794)">
					<title>Feuille.55</title>
					<path d="M122.9 357.75 L0 356.86 L122.9 357.75 Z" class="st2"/>
					<path d="M122.9 357.75 L0 356.86" class="st3"/>
				</g>
				<g id="shape56-164" v:mID="56" v:groupContext="shape" transform="translate(365.343,-205.002)">
					<title>Feuille.56</title>
					<path d="M0 333.91 L35.34 357.75 L0 333.91 Z" class="st2"/>
					<path d="M0 333.91 L35.34 357.75" class="st3"/>
				</g>
				<g id="shape57-167" v:mID="57" v:groupContext="shape" transform="translate(292.99,-237.146)">
					<title>Feuille.57</title>
					<path d="M0 338.88 L55.6 357.75 L0 338.88 Z" class="st2"/>
					<path d="M0 338.88 L55.6 357.75" class="st3"/>
				</g>
				<g id="shape58-170" v:mID="58" v:groupContext="shape" transform="translate(269.421,-209.796)">
					<title>Feuille.58</title>
					<path d="M0 357.75 L11.95 317.54 L0 357.75 Z" class="st2"/>
					<path d="M0 357.75 L11.95 317.54" class="st3"/>
				</g>
				<g id="shape59-173" v:mID="59" v:groupContext="shape" transform="translate(364.496,-240.467)">
					<title>Feuille.59</title>
					<path d="M15.93 343.24 L0 357.75 L15.93 343.24 Z" class="st2"/>
					<path d="M15.93 343.24 L0 357.75" class="st3"/>
				</g>
				<g id="shape60-176" v:mID="60" v:groupContext="shape" transform="translate(240.894,-224.235)">
					<title>Feuille.60</title>
					<path d="M0 357.75 L107.23 348.67 L0 357.75 Z" class="st2"/>
					<path d="M0 357.75 L107.23 348.67" class="st3"/>
				</g>
				<g id="shape61-179" v:mID="61" v:groupContext="shape" transform="translate(239.426,-205.86)">
					<title>Feuille.61</title>
					<path d="M0 345.28 L19.38 357.75 L0 345.28 Z" class="st2"/>
					<path d="M0 345.28 L19.38 357.75" class="st3"/>
				</g>
				<g id="shape62-182" v:mID="62" v:groupContext="shape" transform="translate(404.781,-43.1097)">
					<title>Feuille.62</title>
					<path d="M17.61 348.95 C17.61 353.81 13.67 357.75 8.8 357.75 C3.94 357.75 0 353.81 0 348.95 C-0 344.08 3.94 340.14
								 8.8 340.14 C13.67 340.14 17.61 344.08 17.61 348.95 Z" class="st4"/>
				</g>
				<g id="shape63-184" v:mID="63" v:groupContext="shape" transform="translate(404.781,-43.1097)">
					<title>Feuille.63</title>
					<path d="M17.61 348.95 C17.61 353.81 13.67 357.75 8.8 357.75 C3.94 357.75 0 353.81 0 348.95 C-0 344.08 3.94 340.14
								 8.8 340.14 C13.67 340.14 17.61 344.08 17.61 348.95 Z" class="st5"/>
				</g>
				<g id="shape64-186" v:mID="64" v:groupContext="shape" transform="translate(426.794,-48.1264)">
					<title>Feuille.64</title>
					<desc>51492604_Aeromonas_pFBAOT6</desc>
					<v:textBlock v:margins="rect(0,0,0,0)"/>
					<v:textRect cx="130.816" cy="355.234" width="261.64" height="5.03137"/>
					<rect x="0" y="352.719" width="261.631" height="5.03137" class="st6"/>
					<text x="0" y="358.25" class="st7" v:langID="1033"><v:paragraph/><v:tabList/>51492604_Aeromonas_pFBAOT6</text>				</g>
				<g id="shape65-189" v:mID="65" v:groupContext="shape" transform="translate(307.73,-104.15)">
					<title>Feuille.65</title>
					<path d="M17.61 348.95 C17.61 353.81 13.67 357.75 8.8 357.75 C3.94 357.75 0 353.81 0 348.95 C-0 344.08 3.94 340.14
								 8.8 340.14 C13.67 340.14 17.61 344.08 17.61 348.95 Z" class="st4"/>
				</g>
				<g id="shape66-191" v:mID="66" v:groupContext="shape" transform="translate(307.73,-104.15)">
					<title>Feuille.66</title>
					<path d="M17.61 348.95 C17.61 353.81 13.67 357.75 8.8 357.75 C3.94 357.75 0 353.81 0 348.95 C-0 344.08 3.94 340.14
								 8.8 340.14 C13.67 340.14 17.61 344.08 17.61 348.95 Z" class="st8"/>
				</g>
				<g id="shape67-193" v:mID="67" v:groupContext="shape" transform="translate(140.545,-109.166)">
					<title>Feuille.67</title>
					<desc>23928457_Corynebacterium_pTET3</desc>
					<v:textBlock v:margins="rect(0,0,0,0)"/>
					<v:textRect cx="150.941" cy="355.234" width="301.89" height="5.03137"/>
					<rect x="0" y="352.719" width="301.882" height="5.03137" class="st6"/>
					<text x="0" y="358.25" class="st7" v:langID="1033"><v:paragraph/><v:tabList/>23928457_Corynebacterium_pTET3</text>				</g>
				<g id="shape68-196" v:mID="68" v:groupContext="shape" transform="translate(215.367,-36.4309)">
					<title>Feuille.68</title>
					<path d="M17.61 348.95 C17.61 353.81 13.67 357.75 8.8 357.75 C3.94 357.75 0 353.81 0 348.95 C-0 344.08 3.94 340.14
								 8.8 340.14 C13.67 340.14 17.61 344.08 17.61 348.95 Z" class="st4"/>
				</g>
				<g id="shape69-198" v:mID="69" v:groupContext="shape" transform="translate(215.367,-36.4309)">
					<title>Feuille.69</title>
					<path d="M17.61 348.95 C17.61 353.81 13.67 357.75 8.8 357.75 C3.94 357.75 0 353.81 0 348.95 C-0 344.08 3.94 340.14
								 8.8 340.14 C13.67 340.14 17.61 344.08 17.61 348.95 Z" class="st9"/>
				</g>
				<g id="shape70-200" v:mID="70" v:groupContext="shape" transform="translate(43.1454,-41.4475)">
					<title>Feuille.70</title>
					<desc>226810004_Enterobacter_pEC-IMPQ</desc>
					<v:textBlock v:margins="rect(0,0,0,0)"/>
					<v:textRect cx="155.972" cy="355.234" width="311.95" height="5.03137"/>
					<rect x="0" y="352.719" width="311.945" height="5.03137" class="st6"/>
					<text x="0" y="358.25" class="st7" v:langID="1033"><v:paragraph/><v:tabList/>226810004_Enterobacter_pEC-IMPQ</text>				</g>
				<g id="shape71-203" v:mID="71" v:groupContext="shape" transform="translate(186.669,-158.105)">
					<title>Feuille.71</title>
					<path d="M17.61 348.95 C17.61 353.81 13.67 357.75 8.8 357.75 C3.94 357.75 0 353.81 0 348.95 C-0 344.08 3.94 340.14
								 8.8 340.14 C13.67 340.14 17.61 344.08 17.61 348.95 Z" class="st4"/>
				</g>
				<g id="shape72-205" v:mID="72" v:groupContext="shape" transform="translate(186.669,-158.105)">
					<title>Feuille.72</title>
					<path d="M17.61 348.95 C17.61 353.81 13.67 357.75 8.8 357.75 C3.94 357.75 0 353.81 0 348.95 C-0 344.08 3.94 340.14
								 8.8 340.14 C13.67 340.14 17.61 344.08 17.61 348.95 Z" class="st9"/>
				</g>
				<g id="shape73-207" v:mID="73" v:groupContext="shape" transform="translate(29.5324,-163.122)">
					<title>Feuille.73</title>
					<desc>209921963_Escherichia_pSE11-1</desc>
					<v:textBlock v:margins="rect(0,0,0,0)"/>
					<v:textRect cx="145.91" cy="355.234" width="291.82" height="5.03137"/>
					<rect x="0" y="352.719" width="291.819" height="5.03137" class="st6"/>
					<text x="0" y="358.25" class="st7" v:langID="1033"><v:paragraph/><v:tabList/>209921963_Escherichia_pSE11-1</text>				</g>
				<g id="shape74-210" v:mID="74" v:groupContext="shape" transform="translate(445.58,-140.803)">
					<title>Feuille.74</title>
					<path d="M17.61 348.95 C17.61 353.81 13.67 357.75 8.8 357.75 C3.94 357.75 0 353.81 0 348.95 C-0 344.08 3.94 340.14
								 8.8 340.14 C13.67 340.14 17.61 344.08 17.61 348.95 Z" class="st4"/>
				</g>
				<g id="shape75-212" v:mID="75" v:groupContext="shape" transform="translate(445.58,-140.803)">
					<title>Feuille.75</title>
					<path d="M17.61 348.95 C17.61 353.81 13.67 357.75 8.8 357.75 C3.94 357.75 0 353.81 0 348.95 C-0 344.08 3.94 340.14
								 8.8 340.14 C13.67 340.14 17.61 344.08 17.61 348.95 Z" class="st9"/>
				</g>
				<g id="shape76-214" v:mID="76" v:groupContext="shape" transform="translate(467.592,-145.819)">
					<title>Feuille.76</title>
					<desc>89009830_Salmonella_IncW</desc>
					<v:textBlock v:margins="rect(0,0,0,0)"/>
					<v:textRect cx="120.753" cy="355.234" width="241.51" height="5.03137"/>
					<rect x="0" y="352.719" width="241.506" height="5.03137" class="st6"/>
					<text x="0" y="358.25" class="st7" v:langID="1033"><v:paragraph/><v:tabList/>89009830_Salmonella_IncW</text>				</g>
				<g id="shape77-217" v:mID="77" v:groupContext="shape" transform="translate(217.876,-124.27)">
					<title>Feuille.77</title>
					<path d="M17.61 348.95 C17.61 353.81 13.67 357.75 8.8 357.75 C3.94 357.75 0 353.81 0 348.95 C-0 344.08 3.94 340.14
								 8.8 340.14 C13.67 340.14 17.61 344.08 17.61 348.95 Z" class="st4"/>
				</g>
				<g id="shape78-219" v:mID="78" v:groupContext="shape" transform="translate(217.876,-124.27)">
					<title>Feuille.78</title>
					<path d="M17.61 348.95 C17.61 353.81 13.67 357.75 8.8 357.75 C3.94 357.75 0 353.81 0 348.95 C-0 344.08 3.94 340.14
								 8.8 340.14 C13.67 340.14 17.61 344.08 17.61 348.95 Z" class="st8"/>
				</g>
				<g id="shape79-221" v:mID="79" v:groupContext="shape" transform="translate(62.9649,-129.287)">
					<title>Feuille.79</title>
					<desc>4881111_Pseudomonas_pBS228</desc>
					<v:textBlock v:margins="rect(0,0,0,0)"/>
					<v:textRect cx="130.816" cy="355.234" width="261.64" height="5.03137"/>
					<rect x="0" y="352.719" width="261.631" height="5.03137" class="st6"/>
					<text x="0" y="358.25" class="st7" v:langID="1033"><v:paragraph/><v:tabList/>4881111_Pseudomonas_pBS228</text>				</g>
				<g id="shape80-224" v:mID="80" v:groupContext="shape" transform="translate(451.889,-68.4005)">
					<title>Feuille.80</title>
					<path d="M17.61 348.95 C17.61 353.81 13.67 357.75 8.8 357.75 C3.94 357.75 0 353.81 0 348.95 C-0 344.08 3.94 340.14
								 8.8 340.14 C13.67 340.14 17.61 344.08 17.61 348.95 Z" class="st4"/>
				</g>
				<g id="shape81-226" v:mID="81" v:groupContext="shape" transform="translate(451.889,-68.4005)">
					<title>Feuille.81</title>
					<path d="M17.61 348.95 C17.61 353.81 13.67 357.75 8.8 357.75 C3.94 357.75 0 353.81 0 348.95 C-0 344.08 3.94 340.14
								 8.8 340.14 C13.67 340.14 17.61 344.08 17.61 348.95 Z" class="st10"/>
				</g>
				<g id="shape82-228" v:mID="82" v:groupContext="shape" transform="translate(473.901,-73.4172)">
					<title>Feuille.82</title>
					<desc>5983524_Aeromonas_pRAS3.2</desc>
					<v:textBlock v:margins="rect(0,0,0,0)"/>
					<v:textRect cx="125.784" cy="355.234" width="251.57" height="5.03137"/>
					<rect x="0" y="352.719" width="251.568" height="5.03137" class="st6"/>
					<text x="0" y="358.25" class="st7" v:langID="1033"><v:paragraph/><v:tabList/>5983524_Aeromonas_pRAS3.2</text>				</g>
				<g id="shape83-231" v:mID="83" v:groupContext="shape" transform="translate(355.127,-20.1009)">
					<title>Feuille.83</title>
					<path d="M17.61 348.95 C17.61 353.81 13.67 357.75 8.8 357.75 C3.94 357.75 0 353.81 0 348.95 C-0 344.08 3.94 340.14
								 8.8 340.14 C13.67 340.14 17.61 344.08 17.61 348.95 Z" class="st4"/>
				</g>
				<g id="shape84-233" v:mID="84" v:groupContext="shape" transform="translate(355.127,-20.1009)">
					<title>Feuille.84</title>
					<path d="M17.61 348.95 C17.61 353.81 13.67 357.75 8.8 357.75 C3.94 357.75 0 353.81 0 348.95 C-0 344.08 3.94 340.14
								 8.8 340.14 C13.67 340.14 17.61 344.08 17.61 348.95 Z" class="st9"/>
				</g>
				<g id="shape85-235" v:mID="85" v:groupContext="shape" transform="translate(377.139,-25.1175)">
					<title>Feuille.85</title>
					<desc>45294027_Shigella_pSS046</desc>
					<v:textBlock v:margins="rect(0,0,0,0)"/>
					<v:textRect cx="120.753" cy="355.234" width="241.51" height="5.03137"/>
					<rect x="0" y="352.719" width="241.506" height="5.03137" class="st6"/>
					<text x="0" y="358.25" class="st7" v:langID="1033"><v:paragraph/><v:tabList/>45294027_Shigella_pSS046</text>				</g>
				<g id="shape86-238" v:mID="86" v:groupContext="shape" transform="translate(481.938,-93.6906)">
					<title>Feuille.86</title>
					<path d="M17.61 348.95 C17.61 353.81 13.67 357.75 8.8 357.75 C3.94 357.75 0 353.81 0 348.95 C-0 344.08 3.94 340.14
								 8.8 340.14 C13.67 340.14 17.61 344.08 17.61 348.95 Z" class="st4"/>
				</g>
				<g id="shape87-240" v:mID="87" v:groupContext="shape" transform="translate(481.938,-93.6906)">
					<title>Feuille.87</title>
					<path d="M17.61 348.95 C17.61 353.81 13.67 357.75 8.8 357.75 C3.94 357.75 0 353.81 0 348.95 C-0 344.08 3.94 340.14
								 8.8 340.14 C13.67 340.14 17.61 344.08 17.61 348.95 Z" class="st10"/>
				</g>
				<g id="shape88-242" v:mID="88" v:groupContext="shape" transform="translate(503.95,-98.7073)">
					<title>Feuille.88</title>
					<desc>5983535_Aeromonas_pRAS3.1</desc>
					<v:textBlock v:margins="rect(0,0,0,0)"/>
					<v:textRect cx="125.784" cy="355.234" width="251.57" height="5.03137"/>
					<rect x="0" y="352.719" width="251.568" height="5.03137" class="st6"/>
					<text x="0" y="358.25" class="st7" v:langID="1033"><v:paragraph/><v:tabList/>5983535_Aeromonas_pRAS3.1</text>				</g>
				<g id="shape89-245" v:mID="89" v:groupContext="shape" transform="translate(256.34,-67.822)">
					<title>Feuille.89</title>
					<path d="M17.61 348.95 C17.61 353.81 13.67 357.75 8.8 357.75 C3.94 357.75 0 353.81 0 348.95 C-0 344.08 3.94 340.14
								 8.8 340.14 C13.67 340.14 17.61 344.08 17.61 348.95 Z" class="st4"/>
				</g>
				<g id="shape90-247" v:mID="90" v:groupContext="shape" transform="translate(256.34,-67.822)">
					<title>Feuille.90</title>
					<path d="M17.61 348.95 C17.61 353.81 13.67 357.75 8.8 357.75 C3.94 357.75 0 353.81 0 348.95 C-0 344.08 3.94 340.14
								 8.8 340.14 C13.67 340.14 17.61 344.08 17.61 348.95 Z" class="st8"/>
				</g>
				<g id="shape91-249" v:mID="91" v:groupContext="shape" transform="translate(104.815,-72.8386)">
					<title>Feuille.91</title>
					<desc>956601_Corynebacterium_pAG1</desc>
					<v:textBlock v:margins="rect(0,0,0,0)"/>
					<v:textRect cx="135.847" cy="355.234" width="271.7" height="5.03137"/>
					<rect x="0" y="352.719" width="271.694" height="5.03137" class="st6"/>
					<text x="0" y="358.25" class="st7" v:langID="1033"><v:paragraph/><v:tabList/>956601_Corynebacterium_pAG1</text>				</g>
				<g id="shape92-252" v:mID="92" v:groupContext="shape" transform="translate(444.754,-170.084)">
					<title>Feuille.92</title>
					<path d="M17.61 348.95 C17.61 353.81 13.67 357.75 8.8 357.75 C3.94 357.75 0 353.81 0 348.95 C-0 344.08 3.94 340.14
								 8.8 340.14 C13.67 340.14 17.61 344.08 17.61 348.95 Z" class="st4"/>
				</g>
				<g id="shape93-254" v:mID="93" v:groupContext="shape" transform="translate(444.754,-170.084)">
					<title>Feuille.93</title>
					<path d="M17.61 348.95 C17.61 353.81 13.67 357.75 8.8 357.75 C3.94 357.75 0 353.81 0 348.95 C-0 344.08 3.94 340.14
								 8.8 340.14 C13.67 340.14 17.61 344.08 17.61 348.95 Z" class="st9"/>
				</g>
				<g id="shape94-256" v:mID="94" v:groupContext="shape" transform="translate(466.766,-175.101)">
					<title>Feuille.94</title>
					<desc>226807693_Enterobacter_pEC-IMP</desc>
					<v:textBlock v:margins="rect(0,0,0,0)"/>
					<v:textRect cx="150.941" cy="355.234" width="301.89" height="5.03137"/>
					<rect x="0" y="352.719" width="301.882" height="5.03137" class="st6"/>
					<text x="0" y="358.25" class="st7" v:langID="1033"><v:paragraph/><v:tabList/>226807693_Enterobacter_pEC-IMP</text>				</g>
				<g id="shape95-259" v:mID="95" v:groupContext="shape" transform="translate(399.695,-190.921)">
					<title>Feuille.95</title>
					<path d="M17.61 348.95 C17.61 353.81 13.67 357.75 8.8 357.75 C3.94 357.75 0 353.81 0 348.95 C-0 344.08 3.94 340.14
								 8.8 340.14 C13.67 340.14 17.61 344.08 17.61 348.95 Z" class="st4"/>
				</g>
				<g id="shape96-261" v:mID="96" v:groupContext="shape" transform="translate(399.695,-190.921)">
					<title>Feuille.96</title>
					<path d="M17.61 348.95 C17.61 353.81 13.67 357.75 8.8 357.75 C3.94 357.75 0 353.81 0 348.95 C-0 344.08 3.94 340.14
								 8.8 340.14 C13.67 340.14 17.61 344.08 17.61 348.95 Z" class="st9"/>
				</g>
				<g id="shape97-263" v:mID="97" v:groupContext="shape" transform="translate(421.707,-195.938)">
					<title>Feuille.97</title>
					<desc>70783437_Laribacter_pHLHK22</desc>
					<v:textBlock v:margins="rect(0,0,0,0)"/>
					<v:textRect cx="135.847" cy="355.234" width="271.7" height="5.03137"/>
					<rect x="0" y="352.719" width="271.694" height="5.03137" class="st6"/>
					<text x="0" y="358.25" class="st7" v:langID="1033"><v:paragraph/><v:tabList/>70783437_Laribacter_pHLHK22</text>				</g>
				<g id="shape98-266" v:mID="98" v:groupContext="shape" transform="translate(275.252,-250.248)">
					<title>Feuille.98</title>
					<path d="M17.61 348.95 C17.61 353.81 13.67 357.75 8.8 357.75 C3.94 357.75 0 353.81 0 348.95 C-0 344.08 3.94 340.14
								 8.8 340.14 C13.67 340.14 17.61 344.08 17.61 348.95 Z" class="st4"/>
				</g>
				<g id="shape99-268" v:mID="99" v:groupContext="shape" transform="translate(275.252,-250.248)">
					<title>Feuille.99</title>
					<path d="M17.61 348.95 C17.61 353.81 13.67 357.75 8.8 357.75 C3.94 357.75 0 353.81 0 348.95 C-0 344.08 3.94 340.14
								 8.8 340.14 C13.67 340.14 17.61 344.08 17.61 348.95 Z" class="st9"/>
				</g>
				<g id="shape100-270" v:mID="100" v:groupContext="shape" transform="translate(115.889,-255.264)">
					<title>Feuille.100</title>
					<desc>70783420_Salmonella_pUO-SbR3</desc>
					<v:textBlock v:margins="rect(0,0,0,0)"/>
					<v:textRect cx="140.878" cy="355.234" width="281.76" height="5.03137"/>
					<rect x="0" y="352.719" width="281.757" height="5.03137" class="st6"/>
					<text x="-0" y="358.25" class="st7" v:langID="1033"><v:paragraph/><v:tabList/>70783420_Salmonella_pUO-SbR3</text>				</g>
				<g id="shape101-273" v:mID="101" v:groupContext="shape" transform="translate(378.591,-252.524)">
					<title>Feuille.101</title>
					<path d="M17.61 348.95 C17.61 353.81 13.67 357.75 8.8 357.75 C3.94 357.75 0 353.81 0 348.95 C-0 344.08 3.94 340.14
								 8.8 340.14 C13.67 340.14 17.61 344.08 17.61 348.95 Z" class="st4"/>
				</g>
				<g id="shape102-275" v:mID="102" v:groupContext="shape" transform="translate(378.591,-252.524)">
					<title>Feuille.102</title>
					<path d="M17.61 348.95 C17.61 353.81 13.67 357.75 8.8 357.75 C3.94 357.75 0 353.81 0 348.95 C-0 344.08 3.94 340.14
								 8.8 340.14 C13.67 340.14 17.61 344.08 17.61 348.95 Z" class="st5"/>
				</g>
				<g id="shape103-277" v:mID="103" v:groupContext="shape" transform="translate(400.604,-257.541)">
					<title>Feuille.103</title>
					<desc>56709212_Ruegeria_megaRue</desc>
					<v:textBlock v:margins="rect(0,0,0,0)"/>
					<v:textRect cx="125.784" cy="355.234" width="251.57" height="5.03137"/>
					<rect x="0" y="352.719" width="251.568" height="5.03137" class="st6"/>
					<text x="0" y="358.25" class="st7" v:langID="1033"><v:paragraph/><v:tabList/>56709212_Ruegeria_megaRue</text>				</g>
				<g id="shape104-280" v:mID="104" v:groupContext="shape" transform="translate(348.717,-225.309)">
					<title>Feuille.104</title>
					<path d="M17.61 348.95 C17.61 353.81 13.67 357.75 8.8 357.75 C3.94 357.75 0 353.81 0 348.95 C-0 344.08 3.94 340.14
								 8.8 340.14 C13.67 340.14 17.61 344.08 17.61 348.95 Z" class="st4"/>
				</g>
				<g id="shape105-282" v:mID="105" v:groupContext="shape" transform="translate(348.717,-225.309)">
					<title>Feuille.105</title>
					<path d="M17.61 348.95 C17.61 353.81 13.67 357.75 8.8 357.75 C3.94 357.75 0 353.81 0 348.95 C-0 344.08 3.94 340.14
								 8.8 340.14 C13.67 340.14 17.61 344.08 17.61 348.95 Z" class="st5"/>
				</g>
				<g id="shape106-284" v:mID="106" v:groupContext="shape" transform="translate(370.729,-230.325)">
					<title>Feuille.106</title>
					<desc>38261100_Arcanobacterium_pAP2</desc>
					<v:textBlock v:margins="rect(0,0,0,0)"/>
					<v:textRect cx="145.91" cy="355.234" width="291.82" height="5.03137"/>
					<rect x="0" y="352.719" width="291.819" height="5.03137" class="st6"/>
					<text x="0" y="358.25" class="st7" v:langID="1033"><v:paragraph/><v:tabList/>38261100_Arcanobacterium_pAP2</text>				</g>
				<g id="shape107-287" v:mID="107" v:groupContext="shape" transform="translate(257.929,-191.948)">
					<title>Feuille.107</title>
					<path d="M17.61 348.95 C17.61 353.81 13.67 357.75 8.8 357.75 C3.94 357.75 0 353.81 0 348.95 C-0 344.08 3.94 340.14
								 8.8 340.14 C13.67 340.14 17.61 344.08 17.61 348.95 Z" class="st4"/>
				</g>
				<g id="shape108-289" v:mID="108" v:groupContext="shape" transform="translate(257.929,-191.948)">
					<title>Feuille.108</title>
					<path d="M17.61 348.95 C17.61 353.81 13.67 357.75 8.8 357.75 C3.94 357.75 0 353.81 0 348.95 C-0 344.08 3.94 340.14
								 8.8 340.14 C13.67 340.14 17.61 344.08 17.61 348.95 Z" class="st9"/>
				</g>
				<g id="shape109-291" v:mID="109" v:groupContext="shape" transform="translate(71.1539,-196.965)">
					<title>Feuille.109</title>
					<desc>33757319_Corynebacterium_pLEW279a</desc>
					<v:textBlock v:margins="rect(0,0,0,0)"/>
					<v:textRect cx="166.035" cy="355.234" width="332.08" height="5.03137"/>
					<rect x="0" y="352.719" width="332.07" height="5.03137" class="st6"/>
					<text x="0" y="358.25" class="st7" v:langID="1033"><v:paragraph/><v:tabList/>33757319_Corynebacterium_pLEW279a</text>				</g>
				<g id="shape110-294" v:mID="110" v:groupContext="shape" transform="translate(222.689,-214.634)">
					<title>Feuille.110</title>
					<path d="M17.61 348.95 C17.61 353.81 13.67 357.75 8.8 357.75 C3.94 357.75 0 353.81 0 348.95 C-0 344.08 3.94 340.14
								 8.8 340.14 C13.67 340.14 17.61 344.08 17.61 348.95 Z" class="st4"/>
				</g>
				<g id="shape111-296" v:mID="111" v:groupContext="shape" transform="translate(222.689,-214.634)">
					<title>Feuille.111</title>
					<path d="M17.61 348.95 C17.61 353.81 13.67 357.75 8.8 357.75 C3.94 357.75 0 353.81 0 348.95 C-0 344.08 3.94 340.14
								 8.8 340.14 C13.67 340.14 17.61 344.08 17.61 348.95 Z" class="st8"/>
				</g>
				<g id="shape112-298" v:mID="112" v:groupContext="shape" transform="translate(83.4415,-219.65)">
					<title>Feuille.112</title>
					<desc>215528133_Klebsiella_pKP96</desc>
					<v:textBlock v:margins="rect(0,0,0,0)"/>
					<v:textRect cx="130.816" cy="355.234" width="261.64" height="5.03137"/>
					<rect x="0" y="352.719" width="261.631" height="5.03137" class="st6"/>
					<text x="0" y="358.25" class="st7" v:langID="1033"><v:paragraph/><v:tabList/>215528133_Klebsiella_pKP96</text>				</g>
			</g>
			<g id="shape113-301" v:mID="113" v:groupContext="shape" transform="translate(220.5,-310.5)">
				<title>Feuille.113</title>
				<desc>TetA network</desc>
				<v:textBlock v:margins="rect(4,4,4,4)"/>
				<v:textRect cx="94.5" cy="346.5" width="189" height="22.5"/>
				<rect x="0" y="335.25" width="189" height="22.5" class="st11"/>
				<text x="47.37" y="351.3" class="st12" v:langID="4105"><v:paragraph v:horizAlign="1"/><v:tabList/>TetA network</text>			</g>
		</g>
	</g>
</svg>
